<svg className="w-5 h-5 text-white" fill="#ffffff" viewBox="0 0 24 24" xmlns="http://www.w3.org/2000/svg">
  <path d="M5.042 15.165a2.528 2.528 0 0 1-2.52 2.523A2.528 2.528 0 0 1 0 15.165a2.527 2.527 0 0 1 2.522-2.52h2.52v2.52zM6.313 15.165a2.527 2.527 0 0 1 2.521-2.52 2.527 2.527 0 0 1 2.521 2.52v6.313A2.528 2.528 0 0 1 8.834 24a2.528 2.528 0 0 1-2.521-2.522v-6.313zM8.834 5.042a2.528 2.528 0 0 1-2.521-2.52A2.528 2.528 0 0 1 8.834 0a2.528 2.528 0 0 1 2.521 2.522v2.52H8.834zM8.834 6.313a2.528 2.528 0 0 1 2.521 2.521 2.528 2.528 0 0 1-2.521 2.521H2.522A2.528 2.528 0 0 1 0 8.834a2.528 2.528 0 0 1 2.522-2.521h6.312zM15.165 8.834a2.528 2.528 0 0 1 2.521-2.521 2.528 2.528 0 0 1 2.521 2.521 2.528 2.528 0 0 1-2.521 2.521h-2.521V8.834zM13.894 8.834a2.528 2.528 0 0 1-2.52 2.521 2.527 2.527 0 0 1-2.521-2.521V2.522A2.528 2.528 0 0 1 11.374 0a2.528 2.528 0 0 1 2.52 2.522v6.312zM11.374 18.958a2.528 2.528 0 0 1 2.52 2.521 2.528 2.528 0 0 1-2.52 2.521 2.527 2.527 0 0 1-2.521-2.521v-2.521h2.521zM11.374 17.687a2.528 2.528 0 0 1-2.52-2.521 2.527 2.527 0 0 1 2.52-2.521h6.313a2.528 2.528 0 0 1 2.521 2.521 2.528 2.528 0 0 1-2.521 2.521h-6.313z"/>
</svg>
